<?xml version="1.0" standalone="no"?>
<!DOCTYPE svg PUBLIC "-//W3C//DTD SVG 20010904//EN"
 "http://www.w3.org/TR/2001/REC-SVG-20010904/DTD/svg10.dtd">
<svg version="1.0" xmlns="http://www.w3.org/2000/svg"
 width="256.000000pt" height="256.000000pt" viewBox="0 0 256.000000 256.000000"
 preserveAspectRatio="xMidYMid meet">
<metadata>
Created by potrace 1.11, written by Peter Selinger 2001-2013
</metadata>
<g transform="translate(0.000000,256.000000) scale(0.100000,-0.100000)"
fill="#000000" stroke="none">
<path d="M1178 2455 c-2 -2 -25 -5 -53 -9 -180 -21 -332 -77 -490 -181 -85
-56 -102 -69 -178 -142 -93 -89 -203 -242 -243 -339 -9 -22 -22 -52 -29 -69
-33 -77 -59 -173 -71 -265 -10 -73 -10 -251 -1 -320 5 -30 9 -64 11 -75 4 -31
25 -104 52 -180 56 -157 156 -310 284 -433 171 -166 387 -275 625 -316 81 -14
316 -15 385 -1 51 10 153 35 170 42 8 3 17 7 20 7 3 1 37 14 75 30 310 131
561 406 656 719 12 40 24 79 27 87 2 8 6 28 8 44 2 16 7 41 11 55 4 14 8 312
10 661 l4 636 -21 24 -22 25 -614 1 c-337 1 -615 0 -616 -1z"/>
</g>
</svg>
